<?xml version="1.0" standalone="no"?>
<!DOCTYPE svg PUBLIC "-//W3C//DTD SVG 20010904//EN"
 "http://www.w3.org/TR/2001/REC-SVG-20010904/DTD/svg10.dtd">
<svg version="1.0" xmlns="http://www.w3.org/2000/svg"
 width="284.000000pt" height="284.000000pt" viewBox="0 0 284.000000 284.000000"
 preserveAspectRatio="xMidYMid meet">
<metadata>
Created by potrace 1.14, written by Peter Selinger 2001-2017
</metadata>
<g transform="translate(0.000000,284.000000) scale(0.100000,-0.100000)"
fill="#000000" stroke="none">
<path d="M0 2231 l0 -400 70 6 c49 4 70 3 70 -6 0 -6 -6 -12 -12 -12 -15 -2
-64 -6 -90 -8 -10 0 -18 -9 -19 -18 0 -15 -2 -15 -9 2 -5 11 -9 -325 -9 -782
l-1 -803 1420 0 1420 0 0 706 0 707 -52 -7 c-211 -27 -294 -38 -373 -50 -51
-8 -96 -11 -105 -6 -32 17 -108 111 -141 174 -28 53 -39 80 -39 95 0 10 -9 26
-20 36 -38 35 -21 65 37 65 15 0 23 3 20 7 -4 3 -20 6 -36 5 -25 0 -37 9 -78
63 -26 36 -53 65 -60 65 -11 0 -43 26 -99 80 -12 11 -26 20 -33 20 -6 0 -11 7
-11 15 0 17 -30 35 -60 35 -35 0 -81 29 -147 91 -34 33 -66 59 -71 59 -5 0
-12 9 -15 20 -3 12 -14 20 -26 20 -11 0 -25 9 -31 20 -6 10 -28 24 -50 30 -22
6 -40 15 -40 20 0 4 -13 11 -30 15 -16 3 -39 14 -52 24 -20 16 -60 28 -150 46
-21 4 -28 11 -28 29 0 14 6 27 13 30 6 3 -53 4 -133 2 -187 -6 -327 -36 -336
-72 -3 -13 -10 -21 -15 -18 -5 3 -7 9 -4 14 3 5 1 11 -5 15 -6 3 -10 -4 -10
-18 0 -21 -4 -24 -31 -22 -31 2 -52 23 -48 47 1 7 1 23 0 36 l-1 22 -290 0
-290 0 0 -399z m544 324 c5 -22 4 -26 -4 -15 -5 8 -10 24 -10 34 0 26 6 18 14
-19z m1258 -551 c19 -32 30 -102 17 -110 -4 -2 -5 -12 -2 -21 5 -13 2 -15 -20
-9 -20 5 -27 3 -27 -8 0 -8 5 -18 11 -22 7 -4 9 -22 6 -45 -3 -21 -2 -40 2
-42 3 -2 0 -2 -6 -1 -7 2 -14 -4 -15 -14 -2 -32 -4 -37 -11 -49 -8 -12 4 -18
26 -14 5 1 5 -4 1 -10 -3 -6 -3 -14 2 -18 22 -15 34 -52 24 -71 -11 -21 -6
-42 22 -82 10 -14 18 -35 18 -46 0 -12 4 -23 9 -26 9 -6 7 -133 -3 -143 -3 -4
6 -19 20 -34 46 -48 74 -249 55 -397 -12 -93 -59 -251 -83 -280 -24 -29 -99
-54 -142 -46 -44 7 -106 61 -106 92 0 10 17 38 37 62 26 30 45 67 60 119 26
90 28 120 8 127 -8 4 -15 12 -15 19 0 14 -90 64 -165 90 -27 10 -63 28 -80 40
-16 11 -43 20 -60 19 -16 0 -36 4 -43 9 -10 8 -14 5 -19 -11 -6 -23 -18 -28
-28 -12 -10 17 -25 11 -19 -7 4 -15 2 -14 -12 3 l-18 20 -51 -38 c-27 -21 -56
-38 -62 -38 -7 0 -13 -11 -13 -24 0 -32 -18 -45 -71 -48 -39 -3 -44 -1 -47 20
-4 26 -7 26 -62 7 -24 -8 -45 -13 -48 -11 -2 3 -16 -6 -30 -20 -32 -29 -53
-32 -27 -4 28 31 12 34 -30 5 -48 -32 -69 -32 -31 1 15 14 26 28 22 31 -3 3
-15 -2 -25 -11 -11 -10 -25 -15 -32 -10 -8 5 -10 3 -4 -6 6 -10 2 -12 -15 -7
-39 10 -168 -87 -156 -119 3 -7 3 -21 -1 -30 -4 -12 -7 -13 -14 -3 -4 8 -11
10 -16 6 -4 -4 -2 -17 5 -27 20 -32 15 -75 -8 -77 -23 -2 -48 36 -86 132 -15
39 -31 74 -35 79 -5 6 -9 21 -9 35 1 25 1 26 16 6 8 -11 18 -32 21 -46 4 -21
10 -26 27 -22 17 4 18 3 6 -6 -24 -17 -3 -24 47 -15 39 8 52 16 78 51 16 23
35 42 42 42 7 1 16 7 20 14 9 14 71 46 112 57 30 8 33 24 5 28 -67 12 -94 24
-113 55 -11 17 -21 26 -21 20 0 -7 -4 -13 -9 -13 -16 0 -6 55 13 71 24 20 14
38 -18 32 -18 -4 -27 1 -37 19 -14 26 -40 48 -50 42 -4 -2 -12 3 -19 11 -7 8
-19 15 -26 15 -16 0 -16 5 -7 38 4 18 8 20 14 10 7 -11 11 -10 19 2 8 13 10
12 10 -2 0 -10 4 -18 9 -18 5 0 13 -9 16 -20 8 -26 23 -25 27 2 4 29 24 34 31
8 6 -24 20 -26 40 -5 8 8 17 11 21 8 3 -4 6 5 6 18 1 22 30 69 45 69 3 0 3
-15 0 -33 -5 -27 -3 -34 9 -34 11 0 16 10 16 29 0 18 5 28 15 28 10 0 15 -10
15 -31 0 -20 4 -29 12 -27 7 3 19 -1 26 -9 7 -7 18 -13 25 -13 6 0 4 6 -5 13
-9 6 -23 24 -33 39 -16 26 -16 28 -1 34 11 4 22 -1 31 -12 10 -14 13 -15 12
-4 -2 8 -6 21 -10 28 -10 15 1 35 14 27 5 -4 17 -1 26 4 16 9 14 10 -9 11 -18
0 -28 5 -28 15 0 9 9 15 25 15 17 0 23 4 19 15 -4 10 -14 13 -30 9 -31 -8 -30
1 5 36 l28 29 22 -20 c11 -11 21 -24 21 -29 0 -5 12 -16 28 -24 15 -8 40 -26
56 -41 24 -22 33 -25 47 -17 14 9 18 7 23 -14 8 -29 22 -31 36 -4 6 10 17 17
24 14 19 -7 28 10 28 54 0 23 -6 40 -18 49 -9 7 -18 21 -19 30 0 10 -5 24 -9
32 -5 7 -3 18 3 24 15 15 97 9 132 -9 15 -7 38 -14 51 -14 16 -1 31 -14 50
-45 29 -49 40 -54 60 -29 52 64 66 74 100 74 24 0 44 8 64 27 16 15 31 28 34
28 30 6 57 32 68 65 6 22 12 45 12 52 0 7 10 33 23 58 18 36 22 58 19 107 -5
98 23 130 60 67z m-958 -39 c27 -8 57 -21 65 -29 9 -7 24 -16 34 -19 9 -4 17
-13 17 -22 0 -20 -42 -20 -80 0 -39 20 -156 26 -189 9 -27 -14 -101 -19 -101
-7 0 14 34 43 51 43 10 0 21 5 24 10 3 6 23 10 43 10 20 0 44 5 52 10 20 13
26 12 84 -5z m-304 -28 c0 -29 -18 -47 -47 -47 -28 0 -30 20 -3 27 11 3 20 14
20 24 0 11 7 19 15 19 9 0 15 -9 15 -23z m-83 -67 c-4 -16 -18 -47 -31 -67
-19 -29 -28 -61 -36 -133 -6 -52 -12 -99 -14 -105 -2 -5 -4 -13 -5 -17 -1 -4
-9 -24 -17 -43 -8 -20 -12 -40 -8 -46 3 -6 -2 -19 -13 -31 -21 -23 -23 -93 -5
-133 7 -14 17 -36 23 -48 6 -13 44 -58 84 -100 57 -60 80 -77 102 -77 24 -1
26 -2 10 -11 -10 -6 -28 -8 -40 -5 -29 7 -58 -10 -38 -23 22 -14 3 -31 -35
-31 -31 0 -34 2 -34 30 0 17 -5 30 -10 30 -6 0 -8 -10 -5 -22 2 -13 8 -35 11
-50 11 -50 -13 -30 -35 30 -12 31 -29 70 -37 85 -8 16 -14 35 -14 43 0 8 -4
14 -10 14 -5 0 -10 4 -10 10 0 5 -13 31 -29 57 -73 118 -87 227 -42 320 12 23
21 48 21 56 0 8 7 20 15 27 8 7 15 25 15 40 0 16 4 30 9 32 5 2 11 17 13 35 3
23 18 45 58 83 30 28 65 53 78 56 12 4 22 10 22 15 0 5 3 9 6 9 4 0 4 -13 1
-30z m593 -9 c0 -16 -12 -41 -20 -41 -4 0 -7 11 -7 25 0 15 5 25 13 25 8 0 14
-4 14 -9z m80 -78 c0 -30 -26 -30 -65 2 -25 21 -27 25 -12 31 9 3 14 10 11 15
-3 5 11 2 30 -8 26 -12 36 -23 36 -40z m-560 -23 c0 -5 -7 -10 -16 -10 -8 0
-12 5 -9 10 3 6 10 10 16 10 5 0 9 -4 9 -10z m20 -81 c0 -5 -4 -9 -10 -9 -5 0
-10 7 -10 16 0 8 5 12 10 9 6 -3 10 -10 10 -16z m34 -5 c4 -10 1 -14 -6 -12
-15 5 -23 28 -10 28 5 0 13 -7 16 -16z m156 -94 c0 -29 -4 -40 -15 -40 -11 0
-15 11 -15 40 0 29 4 40 15 40 11 0 15 -11 15 -40z m-60 -12 c10 -17 16 -36
13 -41 -7 -12 -53 41 -53 61 0 22 20 12 40 -20z m130 27 c0 -18 -33 -65 -45
-65 -12 0 -12 5 2 35 9 19 23 35 30 35 7 0 13 -2 13 -5z m-162 -67 c13 -11 17
-42 5 -36 -51 25 -63 33 -63 45 0 15 34 10 58 -9z m-164 -15 c13 -4 15 -7 6
-13 -20 -12 6 -50 36 -50 16 0 28 -8 34 -22 5 -13 9 -18 9 -12 1 15 39 25 47
13 4 -6 11 -6 19 1 9 7 15 7 23 -3 9 -10 6 -17 -8 -27 -11 -8 -20 -22 -20 -30
0 -13 -10 -15 -57 -12 -63 4 -83 15 -83 43 0 16 -6 18 -35 14 -29 -3 -40 2
-71 31 -33 32 -35 38 -25 61 11 23 15 25 59 19 26 -4 55 -10 66 -13z m164 -52
c-5 -27 -78 -21 -78 5 0 11 11 14 40 12 31 -1 40 -6 38 -17z m1871 -185 c10
-11 8 -16 -8 -21 -12 -3 -21 -13 -21 -22 0 -8 -6 -13 -12 -10 -7 2 -11 11 -9
18 2 8 5 21 6 29 2 8 4 16 4 18 3 8 30 0 40 -12z m-73 -61 c-3 -8 -1 -15 4
-15 5 0 7 -7 4 -15 -4 -8 -1 -22 6 -30 9 -10 9 -15 1 -15 -6 0 -11 4 -11 8 0
4 -9 8 -20 9 -23 2 -54 23 -57 40 -2 7 10 11 29 11 18 -1 34 4 36 10 2 7 6 12
9 12 3 0 3 -7 -1 -15z m-89 -37 c2 -17 0 -19 -7 -8 -5 8 -6 18 -4 22 8 12 10
10 11 -14z m-1154 -293 c33 -37 33 -46 3 -74 -22 -21 -119 -54 -130 -44 -2 3
-13 2 -23 -1 -16 -5 -22 -23 -31 -95 -22 -162 -13 -217 42 -249 38 -22 66 -75
57 -106 -11 -38 -27 -57 -49 -59 -12 -1 -22 -7 -22 -13 0 -8 -25 -15 -64 -19
-57 -6 -68 -5 -96 15 -43 30 -60 79 -60 169 0 88 12 139 40 171 11 13 20 28
20 34 0 14 89 150 101 154 5 2 9 15 9 28 0 13 4 24 9 24 5 0 15 17 21 38 6 20
13 43 16 51 3 10 20 12 68 9 55 -3 67 -8 89 -33z m-693 -219 c0 -3 -4 -8 -10
-11 -5 -3 -10 -1 -10 4 0 6 5 11 10 11 6 0 10 -2 10 -4z m22 -106 c7 0 9 -20
5 -60 -4 -37 -3 -60 3 -60 6 0 10 -9 10 -20 0 -11 -4 -20 -10 -20 -5 0 -10 5
-10 10 0 6 -4 10 -10 10 -5 0 -10 -7 -10 -15 0 -17 -21 -20 -36 -6 -5 5 -20
11 -33 13 -18 2 -27 12 -33 33 -9 34 8 66 53 103 16 13 29 29 29 37 0 24 25
23 28 -2 2 -12 8 -23 14 -23z"/>
<path d="M1140 1610 c0 -5 7 -10 15 -10 8 0 15 5 15 10 0 6 -7 10 -15 10 -8 0
-15 -4 -15 -10z"/>
<path d="M1257 1543 c-9 -2 -15 -8 -12 -13 3 -5 12 -7 19 -4 8 3 17 1 20 -4 7
-11 46 -4 46 8 0 7 -38 21 -50 19 -3 -1 -13 -3 -23 -6z"/>
<path d="M1122 1286 c-42 -27 -50 -36 -38 -45 11 -9 17 -8 29 4 9 8 22 15 29
15 19 0 78 38 78 50 0 20 -46 9 -98 -24z"/>
<path d="M647 1264 c3 -8 14 -19 25 -25 17 -9 18 -8 9 9 -13 24 -43 38 -34 16z"/>
<path d="M706 1211 c-3 -5 6 -17 21 -27 37 -23 186 -29 204 -8 7 9 8 18 3 23
-13 12 -221 23 -228 12z"/>
<path d="M1037 1034 c-8 -8 3 -34 14 -34 5 0 9 9 9 20 0 19 -11 26 -23 14z"/>
<path d="M515 700 c4 -6 11 -8 16 -5 14 9 11 15 -7 15 -8 0 -12 -5 -9 -10z"/>
<path d="M647 2618 c6 -7 13 -20 16 -28 3 -9 6 -3 6 13 1 19 -4 27 -15 27 -12
0 -14 -4 -7 -12z"/>
<path d="M1715 2590 c-54 -22 -89 -95 -60 -124 23 -22 36 -20 83 13 48 35 48
36 57 84 7 37 7 37 -26 36 -19 0 -43 -4 -54 -9z"/>
<path d="M2708 2023 c7 -3 16 -2 19 1 4 3 -2 6 -13 5 -11 0 -14 -3 -6 -6z"/>
<path d="M2605 2010 c-3 -5 1 -10 9 -10 9 0 16 5 16 10 0 6 -4 10 -9 10 -6 0
-13 -4 -16 -10z"/>
<path d="M2475 1990 l-30 -8 32 -1 c17 0 35 4 38 9 7 11 3 11 -40 0z"/>
<path d="M2350 1970 c-12 -8 -12 -10 5 -10 11 0 27 5 35 10 12 8 12 10 -5 10
-11 0 -27 -5 -35 -10z"/>
<path d="M2188 1943 c7 -3 16 -2 19 1 4 3 -2 6 -13 5 -11 0 -14 -3 -6 -6z"/>
</g>
</svg>
